<svg id="Group_782" data-name="Group 782" xmlns="http://www.w3.org/2000/svg" xmlns:xlink="http://www.w3.org/1999/xlink" width="101.012" height="28.12" viewBox="0 0 101.012 28.12">
  <defs>
    <clipPath id="clip-path">
      <rect id="Rectangle_640" data-name="Rectangle 640" width="101.012" height="28.12" transform="translate(0 0)" fill="none"/>
    </clipPath>
  </defs>
  <g id="Group_779" data-name="Group 779" transform="translate(0 0)" clip-path="url(#clip-path)">
    <path id="Path_104" data-name="Path 104" d="M239.146,17.345a3.585,3.585,0,0,1-1.77-4.211c.078-.368.541-.655.827-.979.207.333.548.648.6,1,.113.853.088,1.724.122,2.684.88-.121,1.6-.18,2.3-.338.248-.056.635-.36.63-.543a23.93,23.93,0,0,0-.306-4.3,2.811,2.811,0,0,0-1.469-1.591,4.393,4.393,0,0,0-5.1,1.661c-1.678,2.723-.813,7.43,1.873,9.151,1.968,1.259,2.261,2.978,1.94,4.994-.053.334-.507.6-.775.9-.223-.318-.6-.615-.641-.957-.113-.858-.078-1.735-.1-2.727-.885.131-1.639.2-2.367.375-.235.056-.581.387-.578.588a17.829,17.829,0,0,0,.27,4.059,3.131,3.131,0,0,0,1.691,1.811,4.146,4.146,0,0,0,5.342-2.779,21.6,21.6,0,0,0,.3-3.583,5.226,5.226,0,0,0-2.776-5.222" transform="translate(-177.479 -6.655)" fill="#fff"/>
    <path id="Path_105" data-name="Path 105" d="M119.681,33.394c-.006-2.521-.03-5.042-.047-7.69a14,14,0,0,1-1.431.145,1.635,1.635,0,0,0-1.86,1.661c-.247,1.788-.673,3.553-1.033,5.325-.374,1.842-.762,3.682-1.143,5.522-.984-3.481-1.772-6.926-2.464-10.389-.194-.967-.564-1.3-1.523-1.079-.834.2-1.839-.111-1.806,1.412.1,4.538.044,9.08.059,13.62.005,1.548.041,3.1.063,4.645,3.607-.193,2.859.083,2.917-2.716.032-1.509.018-3.019.025-4.528a33.852,33.852,0,0,1,1.327,5.531c.17,1.171.726,1.459,1.684,1.062a1.673,1.673,0,0,0,.887-1c.454-2.037.807-4.1,1.2-6.149l.2.036c.011,2.2.022,4.4.034,6.784a11.878,11.878,0,0,1,1.349-.119c1.3.045,1.646-.538,1.606-1.826-.1-3.412-.029-6.83-.037-10.245" transform="translate(-82.155 -19.486)" fill="#fff"/>
    <path id="Path_106" data-name="Path 106" d="M169.363,36.266l-3.688.479c-.008-.828-.023-1.506-.02-2.185.012-2.551.018-2.535,2.438-3.052.329-.07.843-.359.867-.589a24.657,24.657,0,0,0,0-2.773l-3.346.469c.024-1.654.047-3.164.069-4.673l3.123-.712c.078-.018.189,0,.232-.044.173-.186.451-.385.463-.591.047-.833.011-1.67,0-2.718-1.906.3-3.6.558-5.3.827-1.667.263-1.661.267-1.656,1.927q.028,8.311.053,16.623c0,.384.065.767.11,1.264,1.513-.234,2.894-.446,4.275-.663,2.716-.427,2.717-.429,2.539-3.17a1.878,1.878,0,0,0-.164-.42" transform="translate(-123.227 -15.069)" fill="#fff"/>
    <path id="Path_107" data-name="Path 107" d="M203.524,25.626a2.041,2.041,0,0,0,.683-1.363,43.83,43.83,0,0,0-.027-6.108c-.16-1.521-1.343-2.191-2.916-2.025-1.118.118-2.222.366-3.34.487-.789.086-.945.483-.937,1.209.038,3.578.021,7.156.031,10.734.007,2.524.026,5.049.04,7.743.7-.086,1.173-.183,1.646-.194,1.128-.024,1.467-.54,1.409-1.673-.106-2.073-.029-4.156-.028-6.235a3.616,3.616,0,0,1,.448,1.119c.441,1.755.847,3.519,1.334,5.261.093.332.505.83.752.819a22.4,22.4,0,0,0,2.753-.431c-.8-2.448-1.5-4.714-2.3-6.942-.342-.951-.455-1.684.45-2.4m-3.107-1.145-.331-.2c-.007-1.385-.037-2.771,0-4.154.007-.218.379-.625.509-.6.281.059.725.333.734.537a22.205,22.205,0,0,1-.05,3.465c-.037.345-.564.638-.866.955" transform="translate(-149.332 -12.209)" fill="#fff"/>
    <path id="Path_108" data-name="Path 108" d="M35.786,37.807c-.375-2.7-.4-2.668-3.165-2.693-.875-.008-1.179.295-1.285,1.149-.708,5.709-1.467,11.411-2.2,17.117-.05.385-.048.776-.075,1.261.707.026,1.3.007,1.89.08.83.1,1.16-.232,1.212-1.05.061-.958.227-1.91.362-2.978l1.938.047c.189,1.392.36,2.643.538,3.947l2.966-.119c-.034-.519-.037-.875-.084-1.226-.693-5.179-1.376-10.36-2.094-15.536m-2.807,9.476.474-3.753.147,0c.124,1.03.225,2.063.379,3.089.125.829-.272.887-1,.668" transform="translate(-22.028 -26.619)" fill="#fff"/>
    <path id="Path_109" data-name="Path 109" d="M433.546,31.449h0Z" transform="translate(-328.664 -23.841)" fill="#fff"/>
    <path id="Path_110" data-name="Path 110" d="M4.309,41.908a3.362,3.362,0,0,0-.361-.022c-.653.021-.932-.256-.909-.943.043-1.242.013-2.487.013-3.921l3.9.054c-.006-1.105-.012-2.087-.018-3.156L.025,33.5C.014,34.054,0,34.446,0,34.838c.008,5.265.041,10.531.018,15.8C.007,53.264,0,53.3,2.658,53.181c.105,0,.207-.093.393-.182.014-2.571.028-5.162.043-7.843.883.034,1.606.017,2.317.1.82.1,1.071-.232,1.026-1.014-.14-2.446.5-2.136-2.129-2.335" transform="translate(0 -25.396)" fill="#fff"/>
    <path id="Path_111" data-name="Path 111" d="M76.587,43.391a2.914,2.914,0,0,0,.966-1.866A34.448,34.448,0,0,0,77.5,36a2.584,2.584,0,0,0-2.826-2.419,23.473,23.473,0,0,0-3.724.224c-.276.037-.683.617-.685.95-.032,4.582-.006,9.165.011,13.748.006,1.59.027,3.179.042,4.83.692-.02,1.213-.077,1.726-.04,1.077.078,1.352-.423,1.315-1.438-.076-2.082-.033-4.168-.039-6.253a3.106,3.106,0,0,1,.455,1.1c.44,1.8.848,3.6,1.333,5.383.094.344.471.856.733.866a21.268,21.268,0,0,0,2.788-.243c-.848-2.634-1.6-5.049-2.413-7.445-.25-.738-.367-1.262.374-1.872m-2.9-1.535-.365-.282c-.008-1.315-.045-2.631,0-3.944.009-.266.318-.523.488-.784.269.234.751.454.768.7a19.219,19.219,0,0,1-.034,3.35c-.037.345-.557.638-.856.955" transform="translate(-53.252 -25.45)" fill="#fff"/>
    <path id="Path_112" data-name="Path 112" d="M391.046,1.665C391.107.9,390.8.58,390.033.538c-1.885-.1-3.769-.239-5.65-.4-.811-.07-1.039.247-1.021,1.032.045,2.028.013,2.028,2.023,2.342a1.713,1.713,0,0,1,.257.132c.013.521.036,1.038.037,1.555.01,4.539,0,9.077.054,13.616a1.266,1.266,0,0,0,.68.979,12.788,12.788,0,0,0,2.34.128c0-5.453,0-10.771,0-16.163l2.243.047c.017-.791,0-1.469.054-2.141" transform="translate(-290.619 -0.097)" fill="#fff"/>
    <path id="Path_113" data-name="Path 113" d="M354.724,11.725a1.357,1.357,0,0,1,.44-1.732,3.22,3.22,0,0,0,.985-1.978,31.7,31.7,0,0,0-.074-5.168A2.78,2.78,0,0,0,353.61.106c-1.534-.171-3.1-.078-4.819-.1.015,6.644.031,13.08.046,19.589.763,0,1.321-.043,1.872,0,.958.082,1.223-.3,1.185-1.256-.082-2.081-.019-4.169-.016-6.254l.142-.032c.11.373.236.742.327,1.119.443,1.835.849,3.68,1.339,5.5a1.289,1.289,0,0,0,.781.833,19.393,19.393,0,0,0,2.631.035c-.13-.518-.208-.9-.321-1.265-.673-2.189-1.321-4.386-2.054-6.555m-2.439-3.5-.411-.231q0-2.3-.006-4.608l.4-.252c.3.32.822.616.861.965a13.956,13.956,0,0,1-.011,3.1c-.043.367-.54.682-.83,1.021" transform="translate(-264.412 0)" fill="#fff"/>
    <path id="Path_114" data-name="Path 114" d="M314.39,3.878c-.409-2.9-.435-2.874-3.359-2.553a1,1,0,0,0-1.049,1.023c-.743,5.862-1.518,11.719-2.275,17.579-.05.382-.028.773-.039,1.154,2.91.217,2.942.191,3.242-2.455,0-.04.008-.08.012-.12.206-1.81.206-1.81,2.165-1.6.117.965.186,1.966.387,2.939.067.325.451.8.724.826a15.181,15.181,0,0,0,2.384-.141c-.048-.614-.062-1.054-.121-1.488-.685-5.055-1.36-10.111-2.073-15.162M311.926,13.7l-.392-.285.515-4.076.11-.031c.142,1.2.327,2.4.393,3.6.014.252-.406.527-.626.792" transform="translate(-233.238 -0.895)" fill="#fff"/>
    <path id="Path_115" data-name="Path 115" d="M278.04,16.715c-.961-.022-1.251.455-1.181,1.341a6.093,6.093,0,0,1-.041,1.8c-.078.347-.488.619-.748.925-.239-.306-.681-.608-.686-.918-.06-3.893-.078-7.788-.034-11.682,0-.342.517-.677.794-1.016.239.348.629.674.683,1.048a22.5,22.5,0,0,1,.085,2.648c.9-.095,1.69-.144,2.465-.283a.754.754,0,0,0,.487-.539,32.289,32.289,0,0,0-.344-4.408,2.278,2.278,0,0,0-2.107-1.719,4.138,4.138,0,0,0-5.1,3.935c-.1,1.276-.044,2.567-.04,3.852.009,3.012,0,6.023.058,9.034a3.1,3.1,0,0,0,1.679,3.1,4.178,4.178,0,0,0,5.7-2.8,37.493,37.493,0,0,0,.3-4.438c-.792.053-1.377.135-1.96.121" transform="translate(-206.389 -2.907)" fill="#fff"/>
  </g>
</svg>
