<svg xmlns="http://www.w3.org/2000/svg" width="47.379" height="28.117" viewBox="0 0 47.379 28.117">
  <g id="Group_783" data-name="Group 783" transform="translate(-46.451 -238.243)">
    <path id="Path_12" data-name="Path 12" d="M109.276,238.244v27.748h-4.428V244.886h-3.1v-2.952a4.968,4.968,0,0,0,2.952-1.107,3.515,3.515,0,0,0,.96-2.509v-.074Z" transform="translate(-15.445 0)" fill="#fff" fill-rule="evenodd"/>
    <path id="Path_13" data-name="Path 13" d="M76.939,248.068h-.074v-2.656h.074a5.3,5.3,0,0,1,3.616,1.107,4.122,4.122,0,0,1,1.18,3.173v7.749h-4.87V254.71h.959v-5.387c0-.369,0-.738-.148-.886a.737.737,0,0,0-.738-.369Z" transform="translate(-8.495 -2.002)" fill="#fff" fill-rule="evenodd"/>
    <path id="Path_14" data-name="Path 14" d="M74,245.514v22.8a5.157,5.157,0,0,1-2.583-1.034,4.372,4.372,0,0,1-1.107-3.173V249.721a4.372,4.372,0,0,1,1.107-3.173A4.113,4.113,0,0,1,74,245.514Z" transform="translate(-6.664 -2.031)" fill="#fff" fill-rule="evenodd"/>
    <path id="Path_15" data-name="Path 15" d="M92.185,246.031a2.383,2.383,0,0,1,1.623-.517,2.416,2.416,0,0,1,2.214.886,6.161,6.161,0,0,1,.591,3.1v7.822H92.848v-7.453a1.4,1.4,0,0,0-.3-.886.736.736,0,0,0-.738-.369v-2.362l.37-.221Z" transform="translate(-12.671 -2.031)" fill="#fff" fill-rule="evenodd"/>
    <path id="Path_16" data-name="Path 16" d="M85.159,245.924h3.985v22.213H85.159V245.924Z" transform="translate(-10.812 -2.145)" fill="#fff" fill-rule="evenodd"/>
    <path id="Path_17" data-name="Path 17" d="M81.735,264.458V269.4a4.122,4.122,0,0,1-1.18,3.173,5.3,5.3,0,0,1-3.616,1.107h-.074v-2.656h.074a.935.935,0,0,0,.664-.3,3.072,3.072,0,0,0,.221-.959v-5.314Z" transform="translate(-8.495 -7.322)" fill="#fff" fill-rule="evenodd"/>
    <path id="Path_18" data-name="Path 18" d="M46.452,238.244h4.059v27.748H46.452V238.244Z" transform="translate(0 0)" fill="#fff" fill-rule="evenodd"/>
    <path id="Path_19" data-name="Path 19" d="M53.313,241.417v-3.173h.221a7.313,7.313,0,0,1,4.649,1.18,4.7,4.7,0,0,1,1.476,3.838v6.79a4.67,4.67,0,0,1-1.476,3.911c-.959.886-2.583,1.255-4.649,1.255h-.221V251.9h.369a1.6,1.6,0,0,0,1.18-.369,2.32,2.32,0,0,0,.369-1.476v-6.79a1.69,1.69,0,0,0-.369-1.328,1.218,1.218,0,0,0-1.18-.517Z" transform="translate(-1.916 0)" fill="#fff" fill-rule="evenodd"/>
    <path id="Path_20" data-name="Path 20" d="M63.143,238.244h3.985v3.911H63.143v-3.911Z" transform="translate(-4.662 0)" fill="#fff" fill-rule="evenodd"/>
    <path id="Path_21" data-name="Path 21" d="M63.143,245.924h3.985v22.213H63.143V245.924Z" transform="translate(-4.662 -2.145)" fill="#fff" fill-rule="evenodd"/>
  </g>
</svg>
